<svg xmlns="http://www.w3.org/2000/svg" width="1120" height="410" viewBox="0 0 1120 410" font-family="-apple-system, BlinkMacSystemFont, 'PingFang SC', 'Helvetica Neue', 'Microsoft YaHei', Arial, sans-serif">
<rect width="1120" height="410" fill="#ffffff"/>
<text x="40" y="40" font-size="19" fill="#111827" text-anchor="start" font-weight="700">四个非根组:通信与计算如何交错</text>
<text x="40" y="68" font-size="13" fill="#6b7280" text-anchor="start">各组前向后重分片;绿 = 计算,紫 = all-gather,黄 = reduce-scatter。时间格仅表示顺序,不代表实测耗时。</text>
<text x="180" y="111" font-size="13" fill="#6b7280" text-anchor="start">前向</text>
<text x="565" y="111" font-size="13" fill="#6b7280" text-anchor="start">反向:AG 与 RS 默认共用通信通道</text>
<text x="160" y="182" font-size="14" fill="#111827" text-anchor="end" font-weight="700">计算流</text>
<text x="160" y="242" font-size="14" fill="#111827" text-anchor="end" font-weight="700">all-gather</text>
<text x="160" y="302" font-size="14" fill="#111827" text-anchor="end" font-weight="700">reduce-scatter</text>
<rect x="180" y="220" width="64" height="34" rx="6" fill="#ecebfb" stroke="#8f8bd8" stroke-width="1.4"/>
<text x="212.0" y="242" font-size="13" fill="#111827" text-anchor="middle" font-weight="700">m1</text>
<rect x="254" y="160" width="64" height="34" rx="6" fill="#e3f4ec" stroke="#5fa886" stroke-width="1.4"/>
<text x="286.0" y="182" font-size="13" fill="#111827" text-anchor="middle" font-weight="700">m1</text>
<rect x="254" y="220" width="64" height="34" rx="6" fill="#ecebfb" stroke="#8f8bd8" stroke-width="1.4"/>
<text x="286.0" y="242" font-size="13" fill="#111827" text-anchor="middle" font-weight="700">m2</text>
<rect x="328" y="160" width="64" height="34" rx="6" fill="#e3f4ec" stroke="#5fa886" stroke-width="1.4"/>
<text x="360.0" y="182" font-size="13" fill="#111827" text-anchor="middle" font-weight="700">m2</text>
<rect x="328" y="220" width="64" height="34" rx="6" fill="#ecebfb" stroke="#8f8bd8" stroke-width="1.4"/>
<text x="360.0" y="242" font-size="13" fill="#111827" text-anchor="middle" font-weight="700">m3</text>
<rect x="402" y="160" width="64" height="34" rx="6" fill="#e3f4ec" stroke="#5fa886" stroke-width="1.4"/>
<text x="434.0" y="182" font-size="13" fill="#111827" text-anchor="middle" font-weight="700">m3</text>
<rect x="402" y="220" width="64" height="34" rx="6" fill="#ecebfb" stroke="#8f8bd8" stroke-width="1.4"/>
<text x="434.0" y="242" font-size="13" fill="#111827" text-anchor="middle" font-weight="700">m4</text>
<rect x="476" y="160" width="64" height="34" rx="6" fill="#e3f4ec" stroke="#5fa886" stroke-width="1.4"/>
<text x="508.0" y="182" font-size="13" fill="#111827" text-anchor="middle" font-weight="700">m4</text>
<rect x="580" y="220" width="36" height="34" rx="6" fill="#ecebfb" stroke="#8f8bd8" stroke-width="1.4"/>
<text x="598.0" y="242" font-size="13" fill="#111827" text-anchor="middle" font-weight="700">m4</text>
<rect x="622" y="220" width="36" height="34" rx="6" fill="#ecebfb" stroke="#8f8bd8" stroke-width="1.4"/>
<text x="640.0" y="242" font-size="13" fill="#111827" text-anchor="middle" font-weight="700">m3</text>
<rect x="748" y="220" width="36" height="34" rx="6" fill="#ecebfb" stroke="#8f8bd8" stroke-width="1.4"/>
<text x="766.0" y="242" font-size="13" fill="#111827" text-anchor="middle" font-weight="700">m2</text>
<rect x="832" y="220" width="36" height="34" rx="6" fill="#ecebfb" stroke="#8f8bd8" stroke-width="1.4"/>
<text x="850.0" y="242" font-size="13" fill="#111827" text-anchor="middle" font-weight="700">m1</text>
<rect x="622" y="160" width="78" height="34" rx="6" fill="#e3f4ec" stroke="#5fa886" stroke-width="1.4"/>
<text x="661.0" y="182" font-size="13" fill="#111827" text-anchor="middle" font-weight="700">m4</text>
<rect x="706" y="160" width="78" height="34" rx="6" fill="#e3f4ec" stroke="#5fa886" stroke-width="1.4"/>
<text x="745.0" y="182" font-size="13" fill="#111827" text-anchor="middle" font-weight="700">m3</text>
<rect x="790" y="160" width="78" height="34" rx="6" fill="#e3f4ec" stroke="#5fa886" stroke-width="1.4"/>
<text x="829.0" y="182" font-size="13" fill="#111827" text-anchor="middle" font-weight="700">m2</text>
<rect x="874" y="160" width="78" height="34" rx="6" fill="#e3f4ec" stroke="#5fa886" stroke-width="1.4"/>
<text x="913.0" y="182" font-size="13" fill="#111827" text-anchor="middle" font-weight="700">m1</text>
<rect x="706" y="280" width="36" height="34" rx="6" fill="#fdf1dc" stroke="#d4a24c" stroke-width="1.4"/>
<text x="724.0" y="302" font-size="13" fill="#111827" text-anchor="middle" font-weight="700">m4</text>
<rect x="790" y="280" width="36" height="34" rx="6" fill="#fdf1dc" stroke="#d4a24c" stroke-width="1.4"/>
<text x="808.0" y="302" font-size="13" fill="#111827" text-anchor="middle" font-weight="700">m3</text>
<rect x="874" y="280" width="36" height="34" rx="6" fill="#fdf1dc" stroke="#d4a24c" stroke-width="1.4"/>
<text x="892.0" y="302" font-size="13" fill="#111827" text-anchor="middle" font-weight="700">m2</text>
<rect x="958" y="280" width="36" height="34" rx="6" fill="#fdf1dc" stroke="#d4a24c" stroke-width="1.4"/>
<text x="976.0" y="302" font-size="13" fill="#111827" text-anchor="middle" font-weight="700">m1</text>
<text x="180" y="350" font-size="13" fill="#6b7280" text-anchor="start">计算须等待本组 all-gather 完成;提前聚合的参数会在等待计算期间占用显存。</text>
<text x="180" y="378" font-size="13" fill="#6b7280" text-anchor="start">根组默认保留前向完整参数,不在本图中;实际调度与通信时长取决于负载和配置。</text>
</svg>