<svg xmlns="http://www.w3.org/2000/svg" width="1120" height="660" viewBox="0 0 1120 660" font-family="-apple-system, BlinkMacSystemFont, 'PingFang SC', 'Helvetica Neue', 'Microsoft YaHei', Arial, sans-serif">
  <rect x="0" y="0" width="1120" height="660" fill="#ffffff"/>

  <text x="40" y="46" font-size="19" font-weight="700" fill="#111827">CPU 领先多少,决定同一段前向有多长</text>
  <text x="40" y="72" font-size="13" fill="#6b7280">黄 = CPU 上的hook发起一次凑齐,绿 = 计算流上的前向,紫 = all-gather 流上的 all-gather,灰 = 计算流在等;三段左端对齐,方块宽度不代表实际耗时</text>

  <rect x="40" y="96" width="1040" height="158" rx="8" fill="#ffffff" stroke="#cbd2d9" stroke-width="1.4" stroke-dasharray="5 4"/>
  <rect x="40" y="270" width="1040" height="158" rx="8" fill="#ffffff" stroke="#cbd2d9" stroke-width="1.4" stroke-dasharray="5 4"/>
  <rect x="40" y="444" width="1040" height="158" rx="8" fill="#ffffff" stroke="#cbd2d9" stroke-width="1.4" stroke-dasharray="5 4"/>

  <text x="56" y="120" font-size="13" fill="#6b7280">领先够:当前组还在 GPU 上算,下一个组的hook已经在 CPU 上跑过了</text>
  <text x="176" y="148" font-size="12" font-weight="700" fill="#111827" text-anchor="end">CPU 发起</text>
  <text x="176" y="187" font-size="14" font-weight="700" fill="#111827" text-anchor="end">计算流</text>
  <text x="176" y="231" font-size="14" font-weight="700" fill="#111827" text-anchor="end">all-gather 流</text>

  <rect x="200" y="132" width="28" height="24" rx="6" fill="#fdf1dc" stroke="#d4a24c" stroke-width="1.4"/>
  <text x="214" y="148" font-size="12" font-weight="700" fill="#111827" text-anchor="middle">m1</text>
  <rect x="250" y="132" width="28" height="24" rx="6" fill="#fdf1dc" stroke="#d4a24c" stroke-width="1.4"/>
  <text x="264" y="148" font-size="12" font-weight="700" fill="#111827" text-anchor="middle">m2</text>
  <rect x="320" y="132" width="28" height="24" rx="6" fill="#fdf1dc" stroke="#d4a24c" stroke-width="1.4"/>
  <text x="334" y="148" font-size="12" font-weight="700" fill="#111827" text-anchor="middle">m3</text>
  <rect x="390" y="132" width="28" height="24" rx="6" fill="#fdf1dc" stroke="#d4a24c" stroke-width="1.4"/>
  <text x="404" y="148" font-size="12" font-weight="700" fill="#111827" text-anchor="middle">m4</text>

  <rect x="200" y="166" width="70" height="34" rx="6" fill="#eeeeee" stroke="#b9b9b9" stroke-width="1.4"/>
  <text x="235" y="187" font-size="14" font-weight="700" fill="#111827" text-anchor="middle">等</text>
  <rect x="270" y="166" width="70" height="34" rx="6" fill="#e3f4ec" stroke="#5fa886" stroke-width="1.4"/>
  <text x="305" y="187" font-size="14" font-weight="700" fill="#111827" text-anchor="middle">m1</text>
  <rect x="340" y="166" width="70" height="34" rx="6" fill="#e3f4ec" stroke="#5fa886" stroke-width="1.4"/>
  <text x="375" y="187" font-size="14" font-weight="700" fill="#111827" text-anchor="middle">m2</text>
  <rect x="410" y="166" width="70" height="34" rx="6" fill="#e3f4ec" stroke="#5fa886" stroke-width="1.4"/>
  <text x="445" y="187" font-size="14" font-weight="700" fill="#111827" text-anchor="middle">m3</text>
  <rect x="480" y="166" width="70" height="34" rx="6" fill="#e3f4ec" stroke="#5fa886" stroke-width="1.4"/>
  <text x="515" y="187" font-size="14" font-weight="700" fill="#111827" text-anchor="middle">m4</text>

  <rect x="200" y="210" width="70" height="34" rx="6" fill="#ecebfb" stroke="#8f8bd8" stroke-width="1.4"/>
  <text x="235" y="231" font-size="14" font-weight="700" fill="#111827" text-anchor="middle">m1</text>
  <rect x="270" y="210" width="70" height="34" rx="6" fill="#ecebfb" stroke="#8f8bd8" stroke-width="1.4"/>
  <text x="305" y="231" font-size="14" font-weight="700" fill="#111827" text-anchor="middle">m2</text>
  <rect x="340" y="210" width="70" height="34" rx="6" fill="#ecebfb" stroke="#8f8bd8" stroke-width="1.4"/>
  <text x="375" y="231" font-size="14" font-weight="700" fill="#111827" text-anchor="middle">m3</text>
  <rect x="410" y="210" width="70" height="34" rx="6" fill="#ecebfb" stroke="#8f8bd8" stroke-width="1.4"/>
  <text x="445" y="231" font-size="14" font-weight="700" fill="#111827" text-anchor="middle">m4</text>

  <text x="56" y="294" font-size="13" fill="#6b7280">领先不够(层小、host 端重):hook要等计算结束才轮到,凑齐落在关键路径上</text>
  <text x="176" y="322" font-size="12" font-weight="700" fill="#111827" text-anchor="end">CPU 发起</text>
  <text x="176" y="361" font-size="14" font-weight="700" fill="#111827" text-anchor="end">计算流</text>
  <text x="176" y="405" font-size="14" font-weight="700" fill="#111827" text-anchor="end">all-gather 流</text>

  <rect x="200" y="306" width="28" height="24" rx="6" fill="#fdf1dc" stroke="#d4a24c" stroke-width="1.4"/>
  <text x="214" y="322" font-size="12" font-weight="700" fill="#111827" text-anchor="middle">m1</text>
  <rect x="340" y="306" width="28" height="24" rx="6" fill="#fdf1dc" stroke="#d4a24c" stroke-width="1.4"/>
  <text x="354" y="322" font-size="12" font-weight="700" fill="#111827" text-anchor="middle">m2</text>
  <rect x="480" y="306" width="28" height="24" rx="6" fill="#fdf1dc" stroke="#d4a24c" stroke-width="1.4"/>
  <text x="494" y="322" font-size="12" font-weight="700" fill="#111827" text-anchor="middle">m3</text>
  <rect x="620" y="306" width="28" height="24" rx="6" fill="#fdf1dc" stroke="#d4a24c" stroke-width="1.4"/>
  <text x="634" y="322" font-size="12" font-weight="700" fill="#111827" text-anchor="middle">m4</text>

  <rect x="200" y="340" width="70" height="34" rx="6" fill="#eeeeee" stroke="#b9b9b9" stroke-width="1.4"/>
  <text x="235" y="361" font-size="14" font-weight="700" fill="#111827" text-anchor="middle">等</text>
  <rect x="270" y="340" width="70" height="34" rx="6" fill="#e3f4ec" stroke="#5fa886" stroke-width="1.4"/>
  <text x="305" y="361" font-size="14" font-weight="700" fill="#111827" text-anchor="middle">m1</text>
  <rect x="340" y="340" width="70" height="34" rx="6" fill="#eeeeee" stroke="#b9b9b9" stroke-width="1.4"/>
  <text x="375" y="361" font-size="14" font-weight="700" fill="#111827" text-anchor="middle">等</text>
  <rect x="410" y="340" width="70" height="34" rx="6" fill="#e3f4ec" stroke="#5fa886" stroke-width="1.4"/>
  <text x="445" y="361" font-size="14" font-weight="700" fill="#111827" text-anchor="middle">m2</text>
  <rect x="480" y="340" width="70" height="34" rx="6" fill="#eeeeee" stroke="#b9b9b9" stroke-width="1.4"/>
  <text x="515" y="361" font-size="14" font-weight="700" fill="#111827" text-anchor="middle">等</text>
  <rect x="550" y="340" width="70" height="34" rx="6" fill="#e3f4ec" stroke="#5fa886" stroke-width="1.4"/>
  <text x="585" y="361" font-size="14" font-weight="700" fill="#111827" text-anchor="middle">m3</text>
  <rect x="620" y="340" width="70" height="34" rx="6" fill="#eeeeee" stroke="#b9b9b9" stroke-width="1.4"/>
  <text x="655" y="361" font-size="14" font-weight="700" fill="#111827" text-anchor="middle">等</text>
  <rect x="690" y="340" width="70" height="34" rx="6" fill="#e3f4ec" stroke="#5fa886" stroke-width="1.4"/>
  <text x="725" y="361" font-size="14" font-weight="700" fill="#111827" text-anchor="middle">m4</text>

  <rect x="200" y="384" width="70" height="34" rx="6" fill="#ecebfb" stroke="#8f8bd8" stroke-width="1.4"/>
  <text x="235" y="405" font-size="14" font-weight="700" fill="#111827" text-anchor="middle">m1</text>
  <rect x="340" y="384" width="70" height="34" rx="6" fill="#ecebfb" stroke="#8f8bd8" stroke-width="1.4"/>
  <text x="375" y="405" font-size="14" font-weight="700" fill="#111827" text-anchor="middle">m2</text>
  <rect x="480" y="384" width="70" height="34" rx="6" fill="#ecebfb" stroke="#8f8bd8" stroke-width="1.4"/>
  <text x="515" y="405" font-size="14" font-weight="700" fill="#111827" text-anchor="middle">m3</text>
  <rect x="620" y="384" width="70" height="34" rx="6" fill="#ecebfb" stroke="#8f8bd8" stroke-width="1.4"/>
  <text x="655" y="405" font-size="14" font-weight="700" fill="#111827" text-anchor="middle">m4</text>

  <text x="56" y="468" font-size="13" fill="#6b7280">显式预取:hook里多发一次下一个组的凑齐,发起点提前一格,领先不够也合拢</text>
  <text x="176" y="496" font-size="12" font-weight="700" fill="#111827" text-anchor="end">CPU 发起</text>
  <text x="176" y="535" font-size="14" font-weight="700" fill="#111827" text-anchor="end">计算流</text>
  <text x="176" y="579" font-size="14" font-weight="700" fill="#111827" text-anchor="end">all-gather 流</text>

  <rect x="200" y="480" width="28" height="24" rx="6" fill="#fdf1dc" stroke="#d4a24c" stroke-width="1.4"/>
  <text x="214" y="496" font-size="12" font-weight="700" fill="#111827" text-anchor="middle">m1</text>
  <rect x="232" y="480" width="28" height="24" rx="6" fill="#fdf1dc" stroke="#d4a24c" stroke-width="1.4"/>
  <text x="246" y="496" font-size="12" font-weight="700" fill="#111827" text-anchor="middle">m2</text>
  <rect x="340" y="480" width="28" height="24" rx="6" fill="#fdf1dc" stroke="#d4a24c" stroke-width="1.4"/>
  <text x="354" y="496" font-size="12" font-weight="700" fill="#111827" text-anchor="middle">m3</text>
  <rect x="410" y="480" width="28" height="24" rx="6" fill="#fdf1dc" stroke="#d4a24c" stroke-width="1.4"/>
  <text x="424" y="496" font-size="12" font-weight="700" fill="#111827" text-anchor="middle">m4</text>

  <rect x="200" y="514" width="70" height="34" rx="6" fill="#eeeeee" stroke="#b9b9b9" stroke-width="1.4"/>
  <text x="235" y="535" font-size="14" font-weight="700" fill="#111827" text-anchor="middle">等</text>
  <rect x="270" y="514" width="70" height="34" rx="6" fill="#e3f4ec" stroke="#5fa886" stroke-width="1.4"/>
  <text x="305" y="535" font-size="14" font-weight="700" fill="#111827" text-anchor="middle">m1</text>
  <rect x="340" y="514" width="70" height="34" rx="6" fill="#e3f4ec" stroke="#5fa886" stroke-width="1.4"/>
  <text x="375" y="535" font-size="14" font-weight="700" fill="#111827" text-anchor="middle">m2</text>
  <rect x="410" y="514" width="70" height="34" rx="6" fill="#e3f4ec" stroke="#5fa886" stroke-width="1.4"/>
  <text x="445" y="535" font-size="14" font-weight="700" fill="#111827" text-anchor="middle">m3</text>
  <rect x="480" y="514" width="70" height="34" rx="6" fill="#e3f4ec" stroke="#5fa886" stroke-width="1.4"/>
  <text x="515" y="535" font-size="14" font-weight="700" fill="#111827" text-anchor="middle">m4</text>

  <rect x="200" y="558" width="70" height="34" rx="6" fill="#ecebfb" stroke="#8f8bd8" stroke-width="1.4"/>
  <text x="235" y="579" font-size="14" font-weight="700" fill="#111827" text-anchor="middle">m1</text>
  <rect x="270" y="558" width="70" height="34" rx="6" fill="#ecebfb" stroke="#8f8bd8" stroke-width="1.4"/>
  <text x="305" y="579" font-size="14" font-weight="700" fill="#111827" text-anchor="middle">m2</text>
  <rect x="340" y="558" width="70" height="34" rx="6" fill="#ecebfb" stroke="#8f8bd8" stroke-width="1.4"/>
  <text x="375" y="579" font-size="14" font-weight="700" fill="#111827" text-anchor="middle">m3</text>
  <rect x="410" y="558" width="70" height="34" rx="6" fill="#ecebfb" stroke="#8f8bd8" stroke-width="1.4"/>
  <text x="445" y="579" font-size="14" font-weight="700" fill="#111827" text-anchor="middle">m4</text>

  <text x="560" y="187" font-size="11" fill="#9ca3af">这一段前向到此走完</text>
  <text x="770" y="361" font-size="11" fill="#9ca3af">多出来的这一截全是在等凑齐</text>
  <text x="470" y="496" font-size="11" fill="#9ca3af">每个hook都替下一个组发一次</text>
  <text x="560" y="535" font-size="11" fill="#9ca3af">和第一种一样长</text>
  <text x="40" y="630" font-size="11" fill="#9ca3af">三段的计算总量相同,通信总量也相同;差别只在凑齐的发起时刻,以及由此多出来的等待</text>
</svg>
